<svg width="270.557" height="74.027" viewBox="0 0 270.557 74.027" xmlns="http://www.w3.org/2000/svg"><g id="svgGroup" stroke-linecap="round" fill-rule="evenodd" font-size="9pt" stroke="#ff4400" stroke-width="0.35mm" fill="#ff4400" style="stroke:#ff4400;stroke-width:0.35mm;fill:#ff4400"><path d="M 0 1.467 L 17.48 73.049 L 26.563 73.049 L 40.283 20.314 A 71.2 71.2 0 0 0 40.785 18.306 A 59.392 59.392 0 0 0 41.04 17.165 A 52.24 52.24 0 0 0 41.539 14.465 A 57.831 57.831 0 0 0 41.602 14.064 L 41.992 14.064 A 53.588 53.588 0 0 0 42.476 16.791 A 48.383 48.383 0 0 0 42.554 17.165 A 62.192 62.192 0 0 0 42.998 19.093 A 74.414 74.414 0 0 0 43.311 20.314 L 57.031 73.049 L 66.113 73.049 L 83.594 1.467 L 74.316 1.467 L 62.695 54.104 Q 62.305 55.764 62.109 56.765 A 23.13 23.13 0 0 0 61.987 57.45 Q 61.853 58.269 61.719 59.377 L 61.279 59.377 Q 61.105 57.936 60.949 56.983 A 28.767 28.767 0 0 0 60.913 56.765 A 18.16 18.16 0 0 0 60.78 56.075 Q 60.605 55.245 60.303 54.104 L 46.582 1.467 L 37.109 1.467 L 23.877 54.104 A 55.335 55.335 0 0 0 23.674 54.892 Q 23.449 55.795 23.322 56.457 A 15.524 15.524 0 0 0 23.267 56.765 A 32.5 32.5 0 0 0 23.18 57.303 Q 23.066 58.047 22.941 59.044 A 100.847 100.847 0 0 0 22.9 59.377 L 22.412 59.377 Q 22.237 57.936 22.082 56.983 A 28.767 28.767 0 0 0 22.046 56.765 A 24.869 24.869 0 0 0 21.947 56.223 Q 21.83 55.622 21.655 54.846 A 79.853 79.853 0 0 0 21.484 54.104 L 9.375 1.467 L 0 1.467 Z M 213.77 34.768 L 213.77 39.26 Q 213.77 52.006 218.854 60.39 A 28.192 28.192 0 0 0 222.192 64.846 Q 230.615 74.025 244.775 74.025 A 49.354 49.354 0 0 0 251.87 73.542 Q 256.731 72.835 260.645 71.096 Q 265.197 69.073 268.188 66.817 A 20.496 20.496 0 0 0 270.557 64.748 L 270.557 37.014 L 243.799 37.014 L 243.799 44.729 L 261.475 44.729 L 261.475 61.33 Q 257.959 63.771 254.053 64.895 A 26.856 26.856 0 0 1 250.212 65.682 Q 247.713 66.018 244.775 66.018 A 23.64 23.64 0 0 1 238.001 65.097 A 17.901 17.901 0 0 1 228.882 58.889 Q 223.242 51.76 223.242 39.26 L 223.242 34.768 A 44.732 44.732 0 0 1 223.879 26.975 Q 224.626 22.758 226.249 19.376 A 22.488 22.488 0 0 1 228.882 15.139 A 17.907 17.907 0 0 1 241.852 8.095 A 22.924 22.924 0 0 1 243.848 8.01 A 24.601 24.601 0 0 1 248.973 8.511 Q 252.171 9.193 254.596 10.8 A 13.895 13.895 0 0 1 256.641 12.453 A 18.543 18.543 0 0 1 259.132 15.416 Q 261.182 18.499 261.182 21.779 L 261.182 22.268 L 270.557 22.268 L 270.508 21.73 A 23.086 23.086 0 0 0 263.598 7.186 A 29.631 29.631 0 0 0 262.866 6.472 Q 256.354 0.33 245.157 0.019 A 43.518 43.518 0 0 0 243.945 0.002 A 31.523 31.523 0 0 0 233.221 1.759 A 27.373 27.373 0 0 0 222.192 9.182 Q 214.525 17.538 213.837 31.884 A 60.254 60.254 0 0 0 213.77 34.768 Z M 94.336 1.467 L 94.336 72.561 L 137.402 72.561 L 137.402 64.846 L 103.711 64.846 L 103.711 1.467 L 94.336 1.467 Z M 142.48 34.768 L 142.48 39.26 Q 142.48 52.006 147.564 60.39 A 28.192 28.192 0 0 0 150.903 64.846 A 27.768 27.768 0 0 0 171.183 74.002 A 36.855 36.855 0 0 0 172.51 74.025 A 30.848 30.848 0 0 0 183.48 72.141 A 27.476 27.476 0 0 0 194.116 64.846 Q 201.784 56.489 202.471 42.144 A 60.254 60.254 0 0 0 202.539 39.26 L 202.539 34.768 Q 202.539 22.021 197.455 13.637 A 28.192 28.192 0 0 0 194.116 9.182 A 27.768 27.768 0 0 0 173.836 0.026 A 36.855 36.855 0 0 0 172.51 0.002 A 30.848 30.848 0 0 0 161.54 1.887 A 27.476 27.476 0 0 0 150.903 9.182 Q 143.236 17.538 142.548 31.884 A 60.254 60.254 0 0 0 142.48 34.768 Z M 151.953 39.26 L 151.953 34.768 A 44.732 44.732 0 0 1 152.59 26.975 Q 153.337 22.758 154.96 19.376 A 22.488 22.488 0 0 1 157.593 15.139 A 17.876 17.876 0 0 1 170.524 8.095 A 22.697 22.697 0 0 1 172.51 8.01 A 19.469 19.469 0 0 1 180.141 9.461 A 18.307 18.307 0 0 1 187.427 15.139 Q 193.066 22.268 193.066 34.768 L 193.066 39.26 A 44.732 44.732 0 0 1 192.43 47.052 Q 191.683 51.269 190.059 54.651 A 22.488 22.488 0 0 1 187.427 58.889 A 17.876 17.876 0 0 1 174.496 65.932 A 22.697 22.697 0 0 1 172.51 66.018 A 19.469 19.469 0 0 1 164.879 64.566 A 18.307 18.307 0 0 1 157.593 58.889 Q 151.953 51.76 151.953 39.26 Z" vector-effect="non-scaling-stroke"/></g></svg>